<?xml version="1.0" encoding="UTF-8"?>
<svg id="Calque_1" data-name="Calque 1" xmlns="http://www.w3.org/2000/svg" viewBox="0 0 873.43 229.06">
  <g>
    <path d="M154.7,96.34c-6.47-24.32-25.6-43.41-46.68-55.89-18.29-10.82-40.19-16.94-59.96-24.56C34.52,10.67,20.98,5.44,7.45.18,3.48-1.36-1.26,7.48,2.42,8.9c.27.1.54.2.81.31,1.4,6.95,1.18,14.5,1.8,21.46,1.2,13.52,3.52,26.88,7.26,39.94,7.63,26.65,21.94,49.89,45.3,65.12,22.84,14.89,51.43,23.66,79.06,27.66.3,1.51,1.5,1.24,2.47.35,3.56.48,7.1.89,10.6,1.22,0,.05.01.1.02.16.72,4.86,7.53-2.36,6.99-6.01-2.85-19.34,3.42-42.27-2.04-62.78ZM149.11,158.55c-3.05-.32-6.11-.72-9.17-1.16-3.06-23.1-8.23-46.05-23.82-64.17-20.05-23.31-51.36-36.96-78.06-50.75-1.96-1.01-4.55,3.59-2.64,4.58,25.88,13.37,54.57,26.42,75.13,47.65,16.3,16.84,22.01,39.51,25.2,62.05-25.55-4.15-51.11-12.5-72.91-25.63-25.04-15.09-38.82-39.79-46.72-67.4-3.73-13.03-5.5-26.54-6.62-40.02-.34-4.04-.42-8.25-.79-12.4,28.74,10.9,58.42,20.62,86.19,33.61,24.22,11.33,44.96,31.49,52.81,57.43,5.5,18.16.35,37.42,1.4,56.2Z" style="fill: #005e3b; stroke-width: 0px;"/>
    <path d="M.54,110.35c6.59,6.63,11.12,15.39,17.11,22.58,11.16,13.39,25.45,23.49,41.08,31.02,28.41,13.69,62.72,19.5,94.16,19.52,3.01,0,5.94-7.02,2.64-7.03-30.36-.02-62.05-5.89-89.94-17.78-16.62-7.09-31.39-17.86-43.17-31.54-6.13-7.12-10.49-15.93-17.11-22.58-2.5-2.52-6.82,3.73-4.76,5.8h0Z" style="fill: #005e3b; stroke-width: 0px;"/>
    <path d="M2.17,225.45c51.02,0,102.1-.51,153.09,1.75,1.2.05,2.4-2.75,1.06-2.81-50.99-2.26-102.07-1.75-153.09-1.75-1.2,0-2.38,2.81-1.06,2.81h0Z" style="fill: #005e3b; stroke-width: 0px;"/>
    <path d="M1.54,192.93c27.15,15.67,57.92,17.62,88.4,18.95,21.55.94,43.09,1.95,64.64,2.97,1.8.09,3.6-4.12,1.58-4.21-20.83-.99-41.65-1.96-62.48-2.88-30.98-1.37-62.16-2.85-89.84-18.82-1.64-.95-3.95,3.04-2.3,3.99h0Z" style="fill: #005e3b; stroke-width: 0px;"/>
    <path d="M1.1,154.77c10.69,7.9,20.71,16.49,32.06,23.48,14.7,9.05,30.77,13.83,47.66,16.73,23.72,4.08,48.26,5.41,72.32,5.29,2.4-.01,4.74-5.63,2.11-5.62-22.26.11-44.68-1.32-66.72-4.42-17.62-2.48-34.23-7.11-49.82-15.85-12.47-6.99-23.1-16.49-34.53-24.93-1.96-1.45-5.15,3.78-3.07,5.32h0Z" style="fill: #005e3b; stroke-width: 0px;"/>
  </g>
  <g>
    <path d="M237.18,229.06c-6,0-11.43-1.12-16.3-3.37-4.88-2.25-8.73-5.81-11.57-10.68-2.84-4.87-4.26-11.38-4.26-19.51v-51.24c0-8.14,1.42-14.65,4.26-19.52,2.84-4.87,6.69-8.43,11.57-10.68,4.87-2.25,10.31-3.38,16.3-3.38,6.75,0,12.53,1.18,17.35,3.54,4.82,2.36,8.54,5.6,11.16,9.72,2.62,4.12,3.94,8.76,3.94,13.9,0,1.5-.38,2.57-1.12,3.21-.75.64-1.72.96-2.89.96-1.07,0-1.98-.27-2.73-.8-.75-.53-1.18-1.39-1.29-2.57-.54-4.5-1.82-8.25-3.85-11.25-2.04-2.99-4.79-5.24-8.27-6.74-3.48-1.5-7.57-2.25-12.29-2.25-7.6,0-13.55,2.12-17.83,6.34-4.28,4.23-6.43,10.74-6.43,19.52v51.24c0,8.78,2.14,15.29,6.43,19.51,4.28,4.23,10.22,6.34,17.83,6.34s13.57-2.11,17.91-6.34c4.34-4.23,6.51-10.73,6.51-19.51v-21.69h-23.61c-1.07,0-1.9-.37-2.49-1.12s-.88-1.61-.88-2.57.29-1.82.88-2.57,1.42-1.13,2.49-1.13h28.43c.96,0,1.74.35,2.33,1.04.59.7.88,1.53.88,2.49v25.54c0,8.14-1.42,14.65-4.26,19.51-2.84,4.88-6.72,8.43-11.64,10.68-4.93,2.25-10.44,3.37-16.55,3.37Z" style="fill: #005e3b; stroke-width: 0px;"/>
    <path d="M293.09,228.09c-1.07,0-1.98-.35-2.73-1.04-.75-.69-1.13-1.47-1.13-2.33v-69.23c0-.96.37-1.74,1.13-2.33.75-.59,1.66-.88,2.73-.88,1.18,0,2.11.3,2.81.88.7.59,1.04,1.37,1.04,2.33v8.19c1.29-2.14,2.94-4.15,4.98-6.02,2.03-1.87,4.47-3.4,7.31-4.58,2.84-1.18,6.08-1.77,9.72-1.77h5.78c.96,0,1.77.35,2.41,1.04s.96,1.58.96,2.65-.32,1.95-.96,2.65-1.45,1.04-2.41,1.04h-5.78c-3.64,0-7.15.94-10.52,2.81-3.37,1.88-6.1,4.55-8.19,8.03-2.09,3.48-3.13,7.68-3.13,12.61v42.57c0,.86-.37,1.63-1.12,2.33-.75.7-1.72,1.04-2.89,1.04Z" style="fill: #005e3b; stroke-width: 0px;"/>
    <path d="M367.14,229.06c-6.53,0-12.29-1.23-17.27-3.69-4.98-2.46-8.92-5.91-11.81-10.36-2.89-4.44-4.34-9.66-4.34-15.66v-19.11c0-5.24,1.36-10.07,4.1-14.46s6.32-7.9,10.76-10.52,9.34-3.94,14.7-3.94,10.07,1.26,14.46,3.77c4.39,2.52,7.95,5.94,10.68,10.28,2.73,4.34,4.1,9.34,4.1,15.02,0,3.96-.67,6.83-2.01,8.59-1.34,1.77-3.03,2.84-5.06,3.21-2.03.38-4.23.56-6.59.56h-37.27v6.74c0,6.86,2.46,12.29,7.39,16.31,4.93,4.02,11.08,6.03,18.47,6.03,4.39,0,7.76-.54,10.12-1.61,2.35-1.07,4.18-2.14,5.46-3.21,1.28-1.07,2.46-1.6,3.53-1.6.75,0,1.39.21,1.93.64.54.43.96.94,1.29,1.53s.48,1.15.48,1.69c0,1.07-.94,2.41-2.81,4.02-1.87,1.6-4.52,2.97-7.95,4.1s-7.55,1.69-12.37,1.69ZM341.6,186.17h34.21c3.64,0,6.05-.37,7.23-1.13,1.18-.75,1.76-2.3,1.76-4.66,0-3.64-.88-7.15-2.65-10.52-1.77-3.37-4.28-6.13-7.55-8.27-3.27-2.14-7.04-3.21-11.32-3.21s-7.74.96-11,2.89c-3.27,1.93-5.86,4.5-7.79,7.71s-2.89,6.74-2.89,10.6v6.59Z" style="fill: #005e3b; stroke-width: 0px;"/>
    <path d="M439.58,229.06c-6.53,0-12.29-1.23-17.27-3.69-4.98-2.46-8.92-5.91-11.81-10.36-2.89-4.44-4.34-9.66-4.34-15.66v-19.11c0-5.24,1.36-10.07,4.1-14.46,2.73-4.39,6.32-7.9,10.76-10.52,4.44-2.62,9.34-3.94,14.7-3.94s10.07,1.26,14.46,3.77c4.39,2.52,7.95,5.94,10.68,10.28,2.73,4.34,4.1,9.34,4.1,15.02,0,3.96-.67,6.83-2.01,8.59-1.34,1.77-3.03,2.84-5.06,3.21-2.03.38-4.23.56-6.59.56h-37.27v6.74c0,6.86,2.46,12.29,7.39,16.31,4.93,4.02,11.08,6.03,18.47,6.03,4.39,0,7.76-.54,10.12-1.61,2.35-1.07,4.18-2.14,5.46-3.21,1.28-1.07,2.46-1.6,3.53-1.6.75,0,1.39.21,1.93.64.54.43.96.94,1.29,1.53s.48,1.15.48,1.69c0,1.07-.94,2.41-2.81,4.02-1.88,1.6-4.52,2.97-7.95,4.1s-7.55,1.69-12.37,1.69ZM414.04,186.17h34.21c3.64,0,6.05-.37,7.23-1.13,1.18-.75,1.76-2.3,1.76-4.66,0-3.64-.88-7.15-2.65-10.52-1.77-3.37-4.28-6.13-7.55-8.27-3.27-2.14-7.04-3.21-11.32-3.21s-7.74.96-11,2.89c-3.27,1.93-5.86,4.5-7.79,7.71-1.93,3.21-2.89,6.74-2.89,10.6v6.59Z" style="fill: #005e3b; stroke-width: 0px;"/>
    <path d="M485.2,228.09c-1.07,0-1.98-.35-2.73-1.04-.75-.69-1.13-1.47-1.13-2.33v-69.23c0-.96.37-1.74,1.13-2.33.75-.59,1.66-.88,2.73-.88,1.18,0,2.11.3,2.81.88.7.59,1.04,1.37,1.04,2.33v8.03c1.82-3.11,4.52-5.91,8.11-8.43,3.59-2.51,8.06-3.77,13.41-3.77s10.04,1.31,14.38,3.94c4.34,2.62,7.82,6.16,10.44,10.6s3.94,9.39,3.94,14.86v44.01c0,1.07-.4,1.9-1.2,2.49s-1.74.88-2.81.88c-.86,0-1.72-.29-2.57-.88-.86-.59-1.29-1.42-1.29-2.49v-44.01c0-3.75-.99-7.28-2.97-10.6-1.98-3.32-4.58-6.05-7.79-8.19-3.21-2.14-6.8-3.21-10.76-3.21-3.43,0-6.72.88-9.88,2.65-3.16,1.77-5.76,4.28-7.79,7.55-2.03,3.27-3.05,7.2-3.05,11.81v44.01c0,.86-.37,1.63-1.12,2.33-.75.7-1.72,1.04-2.89,1.04Z" style="fill: #005e3b; stroke-width: 0px;"/>
    <path d="M597.8,228.09c-1.07,0-1.96-.32-2.65-.96s-1.04-1.39-1.04-2.25v-111c0-.86.35-1.6,1.04-2.25.7-.64,1.58-.96,2.65-.96h28.43c6.1,0,11.62,1.13,16.54,3.38s8.81,5.81,11.65,10.68c2.84,4.87,4.26,11.38,4.26,19.52v50.28c0,8.14-1.42,14.65-4.26,19.51-2.84,4.88-6.72,8.43-11.65,10.68s-10.44,3.37-16.54,3.37h-28.43ZM602.13,220.38h24.25c7.6,0,13.54-2.11,17.83-6.34,4.28-4.23,6.43-10.73,6.43-19.51v-50.28c0-8.78-2.14-15.29-6.43-19.52-4.28-4.23-10.22-6.34-17.83-6.34h-24.25v102Z" style="fill: #005e3b; stroke-width: 0px;"/>
    <path d="M711.52,229.06c-6.53,0-12.29-1.23-17.27-3.69-4.98-2.46-8.92-5.91-11.81-10.36-2.89-4.44-4.34-9.66-4.34-15.66v-19.11c0-5.24,1.36-10.07,4.1-14.46,2.73-4.39,6.32-7.9,10.76-10.52s9.34-3.94,14.7-3.94,10.07,1.26,14.46,3.77c4.39,2.52,7.95,5.94,10.68,10.28,2.73,4.34,4.1,9.34,4.1,15.02,0,3.96-.67,6.83-2.01,8.59-1.34,1.77-3.03,2.84-5.06,3.21-2.03.38-4.23.56-6.59.56h-37.27v6.74c0,6.86,2.46,12.29,7.39,16.31,4.93,4.02,11.08,6.03,18.47,6.03,4.39,0,7.76-.54,10.12-1.61,2.35-1.07,4.18-2.14,5.46-3.21,1.28-1.07,2.46-1.6,3.53-1.6.75,0,1.39.21,1.93.64.54.43.96.94,1.29,1.53s.48,1.15.48,1.69c0,1.07-.94,2.41-2.81,4.02-1.87,1.6-4.52,2.97-7.95,4.1-3.43,1.12-7.55,1.69-12.37,1.69ZM685.98,186.17h34.21c3.64,0,6.05-.37,7.23-1.13,1.18-.75,1.76-2.3,1.76-4.66,0-3.64-.88-7.15-2.65-10.52-1.77-3.37-4.28-6.13-7.55-8.27-3.27-2.14-7.04-3.21-11.32-3.21s-7.74.96-11,2.89c-3.27,1.93-5.86,4.5-7.79,7.71s-2.89,6.74-2.89,10.6v6.59Z" style="fill: #005e3b; stroke-width: 0px;"/>
    <path d="M772.88,229.06c-4.93,0-9.19-.62-12.77-1.85-3.59-1.23-6.4-2.68-8.43-4.34-2.03-1.66-3.05-3.24-3.05-4.74,0-.54.13-1.07.4-1.61.27-.53.64-1.02,1.12-1.45.48-.43.94-.64,1.37-.64,1.07,0,2.3.62,3.69,1.85,1.39,1.23,3.42,2.49,6.1,3.78,2.68,1.28,6.48,1.93,11.4,1.93,6.43,0,10.98-1.23,13.66-3.69,2.68-2.46,4.01-5.35,4.01-8.68,0-3.85-.94-6.88-2.81-9.08-1.88-2.19-4.37-3.88-7.47-5.06s-6.34-2.22-9.72-3.13c-3.38-.91-6.61-2.06-9.72-3.45-3.11-1.39-5.62-3.38-7.55-5.94-1.93-2.57-2.89-6.05-2.89-10.44,0-3.21.86-6.48,2.57-9.8,1.71-3.32,4.36-6.05,7.95-8.19,3.59-2.14,8.27-3.21,14.06-3.21,3.42,0,6.69.35,9.8,1.04,3.11.7,5.67,1.6,7.71,2.73,2.03,1.13,3.05,2.28,3.05,3.45,0,.43-.16.99-.48,1.69s-.72,1.28-1.2,1.76-1.1.72-1.85.72-1.82-.37-3.21-1.12c-1.39-.75-3.21-1.47-5.46-2.17s-4.98-1.04-8.19-1.04c-4.18,0-7.52.75-10.04,2.25-2.52,1.5-4.34,3.32-5.46,5.46-1.12,2.14-1.69,4.23-1.69,6.26,0,3.21.96,5.73,2.89,7.55,1.93,1.82,4.42,3.24,7.47,4.26,3.05,1.02,6.29,2.01,9.72,2.97s6.67,2.25,9.72,3.85c3.05,1.61,5.54,3.83,7.47,6.67,1.93,2.84,2.89,6.72,2.89,11.65,0,6-2.2,10.79-6.59,14.38-4.39,3.59-10.55,5.38-18.47,5.38Z" style="fill: #005e3b; stroke-width: 0px;"/>
    <path d="M818.34,228.09c-1.07,0-1.98-.35-2.73-1.04-.75-.69-1.12-1.47-1.12-2.33v-116.3c0-1.07.37-1.9,1.12-2.49s1.66-.89,2.73-.89c1.18,0,2.14.3,2.89.89s1.13,1.42,1.13,2.49v80.79l41.44-36.3c.75-.53,1.45-.8,2.09-.8s1.26.13,1.85.4c.59.27,1.1.67,1.53,1.2.43.54.64,1.23.64,2.09,0,.43-.06.88-.16,1.36-.11.48-.43.88-.96,1.2l-24.74,21.69,28.75,42.41c.43.54.64,1.12.64,1.77s-.19,1.28-.56,1.93c-.38.64-.89,1.15-1.53,1.53s-1.34.56-2.09.56c-1.07,0-1.93-.53-2.57-1.6l-28.43-41.6-15.9,13.97v25.7c0,.86-.38,1.63-1.13,2.33-.75.7-1.71,1.04-2.89,1.04Z" style="fill: #005e3b; stroke-width: 0px;"/>
  </g>
</svg>